<svg xmlns="http://www.w3.org/2000/svg" viewBox="0 0 400 400">
  <g transform="translate(0,73.35)">
  <path d="M39.22,45.78 L31.10,41.39 L34.20,33.74 L24.54,35.35 L18.17,40.51 L27.57,42.50 L10.26,74.67 L10.29,74.71 L39.22,45.78 Z" fill="#e8ffc0" stroke="#e8ffc0" stroke-width="0.75"/>
      <path d="M85.00,85.00 L85.00,46.98 L72.25,55.20 L53.12,53.30 L39.22,45.78 L10.29,74.71 L16.31,85.00 L85.00,85.00 Z" fill="#e8ffc0" stroke="#e8ffc0" stroke-width="0.75"/>
      <path d="M85.00,85.00 L16.31,85.00 L16.53,85.38 L0.00,98.50 L0.02,107.75 L12.13,118.73 L8.62,129.63 L25.71,141.19 L21.91,148.09 L85.00,85.00 Z" fill="#fdae61" stroke="#fdae61" stroke-width="0.75"/>
      <path d="M85.00,170.00 L85.00,85.00 L21.91,148.09 L9.86,170.00 L85.00,170.00 Z" fill="#d7191c" stroke="#d7191c" stroke-width="0.75"/>
      <path d="M85.00,170.00 L9.86,170.00 L5.58,177.77 L19.53,192.69 L45.45,183.93 L53.45,201.08 L54.16,200.84 L85.00,170.00 Z" fill="#a6d96a" stroke="#a6d96a" stroke-width="0.75"/>
      <path d="M85.00,170.00 L54.16,200.84 L69.06,195.87 L76.71,201.04 L77.56,194.54 L85.00,194.94 L85.00,170.00 Z" fill="#a6d96a" stroke="#a6d96a" stroke-width="0.75"/>
      <path d="M85.00,85.00 L169.00,1.00 L145.62,13.09 L114.02,17.99 L112.32,29.35 L85.00,46.98 L85.00,85.00 Z" fill="#d7191c" stroke="#d7191c" stroke-width="0.75"/>
      <path d="M170.00,0.48 L169.00,1.00 L85.00,85.00 L169.18,85.00 L165.16,74.30 L142.75,76.09 L143.01,57.99 L152.54,54.26 L155.92,33.23 L170.00,21.60 L170.00,0.48 Z" fill="#fdae61" stroke="#fdae61" stroke-width="0.75"/>
      <path d="M85.00,85.00 L85.00,170.00 L169.40,85.60 L169.18,85.00 L85.00,85.00 Z" fill="#e8ffc0" stroke="#e8ffc0" stroke-width="0.75"/>
      <path d="M170.00,87.19 L169.40,85.60 L85.00,170.00 L117.94,170.00 L118.02,169.82 L137.36,161.16 L141.49,149.11 L170.00,139.20 L170.00,87.19 Z" fill="#e8ffc0" stroke="#e8ffc0" stroke-width="0.75"/>
      <path d="M85.00,170.00 L85.00,194.94 L88.58,195.13 L101.23,181.12 L109.18,178.21 L112.40,182.75 L117.94,170.00 L85.00,170.00 Z" fill="#d7191c" stroke="#d7191c" stroke-width="0.75"/>
      <path d="M170.00,204.74 L156.95,217.14 L170.00,215.89 L170.00,204.74 Z" fill="#d7191c" stroke="#d7191c" stroke-width="0.75"/>
      <path d="M170.00,21.60 L179.29,13.93 L177.40,2.28 L170.94,0.00 L170.00,0.48 L170.00,21.60 Z" fill="#d7191c" stroke="#d7191c" stroke-width="0.75"/>
      <path d="M255.00,35.88 L252.54,36.86 L249.65,52.80 L255.00,60.40 L255.00,35.88 Z" fill="#e8ffc0" stroke="#e8ffc0" stroke-width="0.75"/>
      <path d="M255.00,85.00 L255.00,65.47 L249.79,63.79 L245.96,75.99 L250.79,85.00 L255.00,85.00 Z" fill="#e8ffc0" stroke="#e8ffc0" stroke-width="0.75"/>
      <path d="M221.74,85.00 L215.18,78.44 L201.70,85.00 L221.74,85.00 Z" fill="#e8ffc0" stroke="#e8ffc0" stroke-width="0.75"/>
      <path d="M201.53,85.00 L196.80,75.84 L178.41,85.00 L201.53,85.00 Z" fill="#d7191c" stroke="#d7191c" stroke-width="0.75"/>
      <path d="M178.41,85.00 L170.63,88.87 L170.00,87.19 L170.00,139.20 L170.68,138.97 L190.42,149.58 L238.12,101.88 L225.31,104.83 L226.83,90.08 L221.74,85.00 L201.70,85.00 L201.56,85.06 L201.53,85.00 L178.41,85.00 Z" fill="#a6d96a" stroke="#a6d96a" stroke-width="0.75"/>
      <path d="M255.00,170.00 L255.00,85.00 L247.63,92.37 L240.29,101.38 L238.12,101.88 L190.42,149.58 L193.93,151.47 L198.54,162.20 L183.42,170.00 L255.00,170.00 Z" fill="#a6d96a" stroke="#a6d96a" stroke-width="0.75"/>
      <path d="M255.00,170.00 L183.42,170.00 L178.55,172.51 L174.72,179.26 L179.85,195.38 L170.00,204.74 L170.00,215.89 L175.14,215.40 L180.03,221.63 L178.55,238.41 L182.17,242.83 L255.00,170.00 Z" fill="#e8ffc0" stroke="#e8ffc0" stroke-width="0.75"/>
      <path d="M255.00,170.00 L182.17,242.83 L187.73,249.63 L201.84,253.30 L238.19,232.31 L240.05,214.12 L245.41,208.89 L255.00,210.04 L255.00,170.00 Z" fill="#a6d96a" stroke="#a6d96a" stroke-width="0.75"/>
      <path d="M255.00,85.00 L297.52,42.48 L280.42,45.69 L273.98,28.31 L255.00,35.88 L255.00,60.40 L259.63,66.97 L255.00,65.47 L255.00,85.00 Z" fill="#fdae61" stroke="#fdae61" stroke-width="0.75"/>
      <path d="M255.00,85.00 L340.00,85.00 L340.00,47.42 L310.76,51.44 L299.60,42.09 L297.52,42.48 L255.00,85.00 Z" fill="#a6d96a" stroke="#a6d96a" stroke-width="0.75"/>
      <path d="M255.00,170.00 L340.00,85.00 L255.00,85.00 L255.00,170.00 Z" fill="#fdae61" stroke="#fdae61" stroke-width="0.75"/>
      <path d="M255.00,170.00 L340.00,170.00 L340.00,85.00 L255.00,170.00 Z" fill="#d7191c" stroke="#d7191c" stroke-width="0.75"/>
      <path d="M340.00,170.00 L255.00,170.00 L255.00,210.04 L258.76,210.48 L260.99,199.39 L279.13,201.21 L284.12,193.63 L308.47,199.16 L312.12,197.88 L340.00,170.00 Z" fill="#d7191c" stroke="#d7191c" stroke-width="0.75"/>
      <path d="M340.00,170.00 L312.12,197.88 L340.00,188.08 L340.00,170.00 Z" fill="#d7191c" stroke="#d7191c" stroke-width="0.75"/>
      <path d="M340.00,85.00 L373.28,51.72 L346.15,46.57 L340.00,47.42 L340.00,85.00 Z" fill="#d7191c" stroke="#d7191c" stroke-width="0.75"/>
      <path d="M340.00,85.00 L382.53,85.00 L378.24,81.19 L384.14,71.77 L382.86,62.60 L376.31,63.70 L376.26,52.29 L373.28,51.72 L340.00,85.00 Z" fill="#d7191c" stroke="#d7191c" stroke-width="0.75"/>
      <path d="M340.00,85.00 L340.00,170.00 L388.36,121.64 L387.85,121.32 L390.37,103.53 L400.00,100.54 L382.53,85.00 L340.00,85.00 Z" fill="#e8ffc0" stroke="#e8ffc0" stroke-width="0.75"/>
      <path d="M340.00,170.00 L363.62,170.00 L364.64,162.19 L388.52,151.65 L385.78,132.52 L398.81,128.21 L388.36,121.64 L340.00,170.00 Z" fill="#fdae61" stroke="#fdae61" stroke-width="0.75"/>
      <path d="M340.00,170.00 L340.00,188.08 L362.27,180.24 L363.62,170.00 L340.00,170.00 Z" fill="#a6d96a" stroke="#a6d96a" stroke-width="0.75"/>
  </g>
</svg>
