<svg xmlns="http://www.w3.org/2000/svg" viewBox="0 0 400 253.3">
  <path d="M29.47,34.53 L24.54,35.35 L18.17,40.51 L22.56,41.44 L29.47,34.53 Z" fill="#d7191c" stroke="#d7191c" stroke-width="0.75"/>
      <path d="M32.00,34.11 L29.47,34.53 L22.56,41.44 L27.57,42.50 L16.00,64.00 L32.00,64.00 L32.00,41.87 L31.10,41.39 L32.00,39.16 L32.00,34.11 Z" fill="#d7191c" stroke="#d7191c" stroke-width="0.75"/>
      <path d="M32.00,64.00 L16.00,64.00 L10.26,74.67 L14.35,81.65 L32.00,64.00 Z" fill="#d7191c" stroke="#d7191c" stroke-width="0.75"/>
      <path d="M32.00,96.00 L32.00,64.00 L14.35,81.65 L16.53,85.38 L3.14,96.00 L32.00,96.00 Z" fill="#e8ffc0" stroke="#e8ffc0" stroke-width="0.75"/>
      <path d="M32.00,96.00 L3.14,96.00 L0.00,98.50 L0.02,107.75 L10.63,117.37 L32.00,96.00 Z" fill="#e8ffc0" stroke="#e8ffc0" stroke-width="0.75"/>
      <path d="M32.00,128.00 L32.00,96.00 L10.63,117.37 L12.13,118.73 L9.15,128.00 L32.00,128.00 Z" fill="#d7191c" stroke="#d7191c" stroke-width="0.75"/>
      <path d="M32.00,128.00 L9.15,128.00 L8.62,129.63 L21.60,138.40 L32.00,128.00 Z" fill="#e8ffc0" stroke="#e8ffc0" stroke-width="0.75"/>
      <path d="M32.00,160.00 L32.00,128.00 L21.60,138.40 L25.71,141.19 L15.36,160.00 L32.00,160.00 Z" fill="#a6d96a" stroke="#a6d96a" stroke-width="0.75"/>
      <path d="M32.00,160.00 L15.36,160.00 L5.58,177.77 L9.76,182.24 L32.00,160.00 Z" fill="#d7191c" stroke="#d7191c" stroke-width="0.75"/>
      <path d="M32.00,160.00 L9.76,182.24 L18.89,192.00 L21.57,192.00 L32.00,188.48 L32.00,160.00 Z" fill="#fdae61" stroke="#fdae61" stroke-width="0.75"/>
      <path d="M32.00,64.00 L46.36,49.64 L32.00,41.87 L32.00,64.00 Z" fill="#e8ffc0" stroke="#e8ffc0" stroke-width="0.75"/>
      <path d="M32.00,64.00 L64.00,64.00 L64.00,54.38 L53.12,53.30 L46.36,49.64 L32.00,64.00 Z" fill="#a6d96a" stroke="#a6d96a" stroke-width="0.75"/>
      <path d="M32.00,96.00 L64.00,64.00 L32.00,64.00 L32.00,96.00 Z" fill="#a6d96a" stroke="#a6d96a" stroke-width="0.75"/>
      <path d="M32.00,96.00 L64.00,96.00 L64.00,64.00 L32.00,96.00 Z" fill="#d7191c" stroke="#d7191c" stroke-width="0.75"/>
      <path d="M32.00,128.00 L64.00,96.00 L32.00,96.00 L32.00,128.00 Z" fill="#d7191c" stroke="#d7191c" stroke-width="0.75"/>
      <path d="M32.00,128.00 L64.00,128.00 L64.00,96.00 L32.00,128.00 Z" fill="#e8ffc0" stroke="#e8ffc0" stroke-width="0.75"/>
      <path d="M32.00,160.00 L64.00,128.00 L32.00,128.00 L32.00,160.00 Z" fill="#a6d96a" stroke="#a6d96a" stroke-width="0.75"/>
      <path d="M32.00,160.00 L64.00,160.00 L64.00,128.00 L32.00,160.00 Z" fill="#a6d96a" stroke="#a6d96a" stroke-width="0.75"/>
      <path d="M64.00,160.00 L32.00,160.00 L32.00,188.48 L37.32,186.68 L64.00,160.00 Z" fill="#a6d96a" stroke="#a6d96a" stroke-width="0.75"/>
      <path d="M64.00,192.00 L64.00,160.00 L37.32,186.68 L45.45,183.93 L49.22,192.00 L64.00,192.00 Z" fill="#a6d96a" stroke="#a6d96a" stroke-width="0.75"/>
      <path d="M64.00,192.00 L49.22,192.00 L53.45,201.08 L55.66,200.34 L64.00,192.00 Z" fill="#e8ffc0" stroke="#e8ffc0" stroke-width="0.75"/>
      <path d="M64.00,192.00 L55.66,200.34 L64.00,197.56 L64.00,192.00 Z" fill="#e8ffc0" stroke="#e8ffc0" stroke-width="0.75"/>
      <path d="M64.00,64.00 L73.79,54.21 L72.25,55.20 L64.00,54.38 L64.00,64.00 Z" fill="#a6d96a" stroke="#a6d96a" stroke-width="0.75"/>
      <path d="M64.00,64.00 L96.00,64.00 L96.00,39.88 L73.79,54.21 L64.00,64.00 Z" fill="#d7191c" stroke="#d7191c" stroke-width="0.75"/>
      <path d="M64.00,96.00 L96.00,64.00 L64.00,64.00 L64.00,96.00 Z" fill="#fdae61" stroke="#fdae61" stroke-width="0.75"/>
      <path d="M64.00,96.00 L96.00,96.00 L96.00,64.00 L64.00,96.00 Z" fill="#d7191c" stroke="#d7191c" stroke-width="0.75"/>
      <path d="M64.00,128.00 L96.00,96.00 L64.00,96.00 L64.00,128.00 Z" fill="#e8ffc0" stroke="#e8ffc0" stroke-width="0.75"/>
      <path d="M64.00,128.00 L96.00,128.00 L96.00,96.00 L64.00,128.00 Z" fill="#e8ffc0" stroke="#e8ffc0" stroke-width="0.75"/>
      <path d="M64.00,160.00 L96.00,128.00 L64.00,128.00 L64.00,160.00 Z" fill="#fdae61" stroke="#fdae61" stroke-width="0.75"/>
      <path d="M64.00,160.00 L96.00,160.00 L96.00,128.00 L64.00,160.00 Z" fill="#d7191c" stroke="#d7191c" stroke-width="0.75"/>
      <path d="M64.00,192.00 L96.00,160.00 L64.00,160.00 L64.00,192.00 Z" fill="#a6d96a" stroke="#a6d96a" stroke-width="0.75"/>
      <path d="M96.00,160.00 L64.00,192.00 L91.41,192.00 L96.00,186.91 L96.00,160.00 Z" fill="#a6d96a" stroke="#a6d96a" stroke-width="0.75"/>
      <path d="M64.00,192.00 L64.00,197.56 L69.06,195.87 L76.71,201.04 L77.56,194.54 L88.58,195.13 L91.41,192.00 L64.00,192.00 Z" fill="#d7191c" stroke="#d7191c" stroke-width="0.75"/>
      <path d="M128.00,32.00 L128.00,15.83 L114.02,17.99 L112.32,29.35 L108.21,32.00 L128.00,32.00 Z" fill="#fdae61" stroke="#fdae61" stroke-width="0.75"/>
      <path d="M96.00,64.00 L128.00,32.00 L108.21,32.00 L96.00,39.88 L96.00,64.00 Z" fill="#d7191c" stroke="#d7191c" stroke-width="0.75"/>
      <path d="M96.00,64.00 L128.00,64.00 L128.00,32.00 L96.00,64.00 Z" fill="#a6d96a" stroke="#a6d96a" stroke-width="0.75"/>
      <path d="M96.00,96.00 L128.00,64.00 L96.00,64.00 L96.00,96.00 Z" fill="#fdae61" stroke="#fdae61" stroke-width="0.75"/>
      <path d="M96.00,96.00 L128.00,96.00 L128.00,64.00 L96.00,96.00 Z" fill="#fdae61" stroke="#fdae61" stroke-width="0.75"/>
      <path d="M96.00,128.00 L128.00,96.00 L96.00,96.00 L96.00,128.00 Z" fill="#e8ffc0" stroke="#e8ffc0" stroke-width="0.75"/>
      <path d="M96.00,128.00 L128.00,128.00 L128.00,96.00 L96.00,128.00 Z" fill="#fdae61" stroke="#fdae61" stroke-width="0.75"/>
      <path d="M96.00,160.00 L128.00,128.00 L96.00,128.00 L96.00,160.00 Z" fill="#a6d96a" stroke="#a6d96a" stroke-width="0.75"/>
      <path d="M96.00,160.00 L128.00,160.00 L128.00,128.00 L96.00,160.00 Z" fill="#a6d96a" stroke="#a6d96a" stroke-width="0.75"/>
      <path d="M128.00,160.00 L96.00,160.00 L96.00,186.91 L101.23,181.12 L109.18,178.21 L109.44,178.56 L117.90,170.10 L118.02,169.82 L118.31,169.69 L128.00,160.00 Z" fill="#a6d96a" stroke="#a6d96a" stroke-width="0.75"/>
      <path d="M128.00,160.00 L118.31,169.69 L128.00,165.35 L128.00,160.00 Z" fill="#d7191c" stroke="#d7191c" stroke-width="0.75"/>
      <path d="M109.44,178.56 L112.40,182.75 L117.90,170.10 L109.44,178.56 Z" fill="#a6d96a" stroke="#a6d96a" stroke-width="0.75"/>
      <path d="M128.00,32.00 L148.29,11.71 L145.62,13.09 L128.00,15.83 L128.00,32.00 Z" fill="#fdae61" stroke="#fdae61" stroke-width="0.75"/>
      <path d="M160.00,5.66 L148.29,11.71 L128.00,32.00 L157.41,32.00 L160.00,29.86 L160.00,5.66 Z" fill="#d7191c" stroke="#d7191c" stroke-width="0.75"/>
      <path d="M128.00,32.00 L128.00,64.00 L155.38,36.62 L155.92,33.23 L157.41,32.00 L128.00,32.00 Z" fill="#a6d96a" stroke="#a6d96a" stroke-width="0.75"/>
      <path d="M128.00,64.00 L142.92,64.00 L143.01,57.99 L152.54,54.26 L155.38,36.62 L128.00,64.00 Z" fill="#a6d96a" stroke="#a6d96a" stroke-width="0.75"/>
      <path d="M128.00,64.00 L128.00,96.00 L148.35,75.65 L142.75,76.09 L142.92,64.00 L128.00,64.00 Z" fill="#a6d96a" stroke="#a6d96a" stroke-width="0.75"/>
      <path d="M128.00,96.00 L160.00,96.00 L160.00,74.71 L148.35,75.65 L128.00,96.00 Z" fill="#e8ffc0" stroke="#e8ffc0" stroke-width="0.75"/>
      <path d="M128.00,128.00 L160.00,96.00 L128.00,96.00 L128.00,128.00 Z" fill="#e8ffc0" stroke="#e8ffc0" stroke-width="0.75"/>
      <path d="M128.00,128.00 L160.00,128.00 L160.00,96.00 L128.00,128.00 Z" fill="#a6d96a" stroke="#a6d96a" stroke-width="0.75"/>
      <path d="M128.00,160.00 L160.00,128.00 L128.00,128.00 L128.00,160.00 Z" fill="#d7191c" stroke="#d7191c" stroke-width="0.75"/>
      <path d="M160.00,128.00 L128.00,160.00 L137.76,160.00 L141.49,149.11 L160.00,142.68 L160.00,128.00 Z" fill="#d7191c" stroke="#d7191c" stroke-width="0.75"/>
      <path d="M128.00,160.00 L128.00,165.35 L137.36,161.16 L137.76,160.00 L128.00,160.00 Z" fill="#d7191c" stroke="#d7191c" stroke-width="0.75"/>
      <path d="M179.12,12.88 L177.40,2.28 L170.94,0.00 L160.00,5.66 L160.00,29.86 L172.29,19.71 L179.12,12.88 Z" fill="#d7191c" stroke="#d7191c" stroke-width="0.75"/>
      <path d="M160.00,96.00 L169.68,86.32 L165.16,74.30 L160.00,74.71 L160.00,96.00 Z" fill="#a6d96a" stroke="#a6d96a" stroke-width="0.75"/>
      <path d="M160.00,96.00 L192.00,96.00 L192.00,78.23 L170.63,88.87 L169.68,86.32 L160.00,96.00 Z" fill="#e8ffc0" stroke="#e8ffc0" stroke-width="0.75"/>
      <path d="M160.00,128.00 L192.00,96.00 L160.00,96.00 L160.00,128.00 Z" fill="#fdae61" stroke="#fdae61" stroke-width="0.75"/>
      <path d="M160.00,128.00 L192.00,128.00 L192.00,96.00 L160.00,128.00 Z" fill="#fdae61" stroke="#fdae61" stroke-width="0.75"/>
      <path d="M192.00,128.00 L160.00,128.00 L160.00,142.68 L170.68,138.97 L177.41,142.59 L192.00,128.00 Z" fill="#a6d96a" stroke="#a6d96a" stroke-width="0.75"/>
      <path d="M192.00,128.00 L177.41,142.59 L192.00,150.43 L192.00,128.00 Z" fill="#fdae61" stroke="#fdae61" stroke-width="0.75"/>
      <path d="M192.00,192.00 L192.00,165.57 L180.49,171.51 L177.32,174.68 L174.72,179.26 L178.77,192.00 L192.00,192.00 Z" fill="#fdae61" stroke="#fdae61" stroke-width="0.75"/>
      <path d="M192.00,192.00 L178.77,192.00 L179.85,195.38 L160.00,214.24 L160.00,216.84 L167.91,216.09 L192.00,192.00 Z" fill="#a6d96a" stroke="#a6d96a" stroke-width="0.75"/>
      <path d="M192.00,224.00 L192.00,192.00 L167.91,216.09 L175.14,215.40 L180.03,221.63 L179.82,224.00 L192.00,224.00 Z" fill="#d7191c" stroke="#d7191c" stroke-width="0.75"/>
      <path d="M192.00,224.00 L179.82,224.00 L178.64,237.36 L192.00,224.00 Z" fill="#a6d96a" stroke="#a6d96a" stroke-width="0.75"/>
      <path d="M192.00,224.00 L178.64,237.36 L178.55,238.41 L187.73,249.63 L192.00,250.74 L192.00,224.00 Z" fill="#e8ffc0" stroke="#e8ffc0" stroke-width="0.75"/>
      <path d="M192.00,96.00 L204.24,83.76 L201.56,85.06 L196.80,75.84 L192.00,78.23 L192.00,96.00 Z" fill="#e8ffc0" stroke="#e8ffc0" stroke-width="0.75"/>
      <path d="M192.00,96.00 L224.00,96.00 L224.00,87.25 L215.18,78.44 L204.24,83.76 L192.00,96.00 Z" fill="#a6d96a" stroke="#a6d96a" stroke-width="0.75"/>
      <path d="M192.00,128.00 L224.00,96.00 L192.00,96.00 L192.00,128.00 Z" fill="#a6d96a" stroke="#a6d96a" stroke-width="0.75"/>
      <path d="M192.00,128.00 L224.00,128.00 L224.00,96.00 L192.00,128.00 Z" fill="#a6d96a" stroke="#a6d96a" stroke-width="0.75"/>
      <path d="M224.00,128.00 L192.00,128.00 L192.00,150.43 L193.93,151.47 L195.91,156.09 L224.00,128.00 Z" fill="#d7191c" stroke="#d7191c" stroke-width="0.75"/>
      <path d="M224.00,160.00 L224.00,128.00 L195.91,156.09 L197.60,160.00 L224.00,160.00 Z" fill="#d7191c" stroke="#d7191c" stroke-width="0.75"/>
      <path d="M192.00,192.00 L224.00,160.00 L197.60,160.00 L198.54,162.20 L192.00,165.57 L192.00,192.00 Z" fill="#e8ffc0" stroke="#e8ffc0" stroke-width="0.75"/>
      <path d="M192.00,192.00 L224.00,192.00 L224.00,160.00 L192.00,192.00 Z" fill="#e8ffc0" stroke="#e8ffc0" stroke-width="0.75"/>
      <path d="M192.00,224.00 L224.00,192.00 L192.00,192.00 L192.00,224.00 Z" fill="#d7191c" stroke="#d7191c" stroke-width="0.75"/>
      <path d="M192.00,224.00 L224.00,224.00 L224.00,192.00 L192.00,224.00 Z" fill="#e8ffc0" stroke="#e8ffc0" stroke-width="0.75"/>
      <path d="M224.00,224.00 L192.00,224.00 L192.00,250.74 L196.17,251.83 L224.00,224.00 Z" fill="#e8ffc0" stroke="#e8ffc0" stroke-width="0.75"/>
      <path d="M224.00,224.00 L196.17,251.83 L201.84,253.30 L224.00,240.51 L224.00,224.00 Z" fill="#d7191c" stroke="#d7191c" stroke-width="0.75"/>
      <path d="M256.00,35.48 L252.54,36.86 L249.65,52.80 L256.00,61.82 L256.00,35.48 Z" fill="#d7191c" stroke="#d7191c" stroke-width="0.75"/>
      <path d="M249.72,64.00 L246.86,73.14 L254.64,65.36 L250.45,64.00 L249.72,64.00 Z" fill="#a6d96a" stroke="#a6d96a" stroke-width="0.75"/>
      <path d="M224.00,96.00 L226.47,93.53 L226.83,90.08 L224.00,87.25 L224.00,96.00 Z" fill="#d7191c" stroke="#d7191c" stroke-width="0.75"/>
      <path d="M256.00,96.00 L256.00,65.80 L254.64,65.36 L246.86,73.14 L245.96,75.99 L251.91,87.11 L244.67,96.00 L256.00,96.00 Z" fill="#d7191c" stroke="#d7191c" stroke-width="0.75"/>
      <path d="M224.00,96.00 L224.00,128.00 L256.00,96.00 L244.67,96.00 L240.29,101.38 L225.31,104.83 L226.22,96.00 L224.00,96.00 Z" fill="#e8ffc0" stroke="#e8ffc0" stroke-width="0.75"/>
      <path d="M224.00,128.00 L256.00,128.00 L256.00,96.00 L224.00,128.00 Z" fill="#a6d96a" stroke="#a6d96a" stroke-width="0.75"/>
      <path d="M224.00,160.00 L256.00,128.00 L224.00,128.00 L224.00,160.00 Z" fill="#fdae61" stroke="#fdae61" stroke-width="0.75"/>
      <path d="M224.00,160.00 L256.00,160.00 L256.00,128.00 L224.00,160.00 Z" fill="#fdae61" stroke="#fdae61" stroke-width="0.75"/>
      <path d="M224.00,192.00 L256.00,160.00 L224.00,160.00 L224.00,192.00 Z" fill="#a6d96a" stroke="#a6d96a" stroke-width="0.75"/>
      <path d="M224.00,192.00 L256.00,192.00 L256.00,160.00 L224.00,192.00 Z" fill="#e8ffc0" stroke="#e8ffc0" stroke-width="0.75"/>
      <path d="M224.00,224.00 L256.00,192.00 L224.00,192.00 L224.00,224.00 Z" fill="#e8ffc0" stroke="#e8ffc0" stroke-width="0.75"/>
      <path d="M256.00,192.00 L224.00,224.00 L239.04,224.00 L240.05,214.12 L245.41,208.89 L256.00,210.15 L256.00,192.00 Z" fill="#d7191c" stroke="#d7191c" stroke-width="0.75"/>
      <path d="M224.00,224.00 L224.00,240.51 L238.19,232.31 L239.04,224.00 L224.00,224.00 Z" fill="#a6d96a" stroke="#a6d96a" stroke-width="0.75"/>
      <path d="M275.35,32.00 L273.98,28.31 L264.73,32.00 L275.35,32.00 Z" fill="#a6d96a" stroke="#a6d96a" stroke-width="0.75"/>
      <path d="M264.73,32.00 L256.00,35.48 L256.00,61.82 L256.90,63.10 L278.77,41.23 L275.35,32.00 L264.73,32.00 Z" fill="#e8ffc0" stroke="#e8ffc0" stroke-width="0.75"/>
      <path d="M288.00,64.00 L288.00,44.27 L280.42,45.69 L278.77,41.23 L256.90,63.10 L257.54,64.00 L288.00,64.00 Z" fill="#e8ffc0" stroke="#e8ffc0" stroke-width="0.75"/>
      <path d="M256.00,96.00 L288.00,64.00 L257.54,64.00 L259.63,66.97 L256.00,65.80 L256.00,96.00 Z" fill="#d7191c" stroke="#d7191c" stroke-width="0.75"/>
      <path d="M256.00,96.00 L288.00,96.00 L288.00,64.00 L256.00,96.00 Z" fill="#fdae61" stroke="#fdae61" stroke-width="0.75"/>
      <path d="M256.00,128.00 L288.00,96.00 L256.00,96.00 L256.00,128.00 Z" fill="#a6d96a" stroke="#a6d96a" stroke-width="0.75"/>
      <path d="M256.00,128.00 L288.00,128.00 L288.00,96.00 L256.00,128.00 Z" fill="#fdae61" stroke="#fdae61" stroke-width="0.75"/>
      <path d="M256.00,160.00 L288.00,128.00 L256.00,128.00 L256.00,160.00 Z" fill="#fdae61" stroke="#fdae61" stroke-width="0.75"/>
      <path d="M256.00,160.00 L288.00,160.00 L288.00,128.00 L256.00,160.00 Z" fill="#d7191c" stroke="#d7191c" stroke-width="0.75"/>
      <path d="M256.00,192.00 L288.00,160.00 L256.00,160.00 L256.00,192.00 Z" fill="#a6d96a" stroke="#a6d96a" stroke-width="0.75"/>
      <path d="M256.00,192.00 L288.00,192.00 L288.00,160.00 L256.00,192.00 Z" fill="#a6d96a" stroke="#a6d96a" stroke-width="0.75"/>
      <path d="M288.00,192.00 L256.00,192.00 L256.00,210.15 L258.76,210.48 L260.99,199.39 L278.82,201.18 L279.79,200.21 L284.12,193.63 L285.96,194.04 L288.00,192.00 Z" fill="#a6d96a" stroke="#a6d96a" stroke-width="0.75"/>
      <path d="M288.00,64.00 L305.21,46.79 L299.60,42.09 L288.00,44.27 L288.00,64.00 Z" fill="#e8ffc0" stroke="#e8ffc0" stroke-width="0.75"/>
      <path d="M288.00,64.00 L320.00,64.00 L320.00,50.17 L310.76,51.44 L305.21,46.79 L288.00,64.00 Z" fill="#e8ffc0" stroke="#e8ffc0" stroke-width="0.75"/>
      <path d="M288.00,96.00 L320.00,64.00 L288.00,64.00 L288.00,96.00 Z" fill="#a6d96a" stroke="#a6d96a" stroke-width="0.75"/>
      <path d="M288.00,96.00 L320.00,96.00 L320.00,64.00 L288.00,96.00 Z" fill="#fdae61" stroke="#fdae61" stroke-width="0.75"/>
      <path d="M288.00,128.00 L320.00,96.00 L288.00,96.00 L288.00,128.00 Z" fill="#fdae61" stroke="#fdae61" stroke-width="0.75"/>
      <path d="M288.00,128.00 L320.00,128.00 L320.00,96.00 L288.00,128.00 Z" fill="#d7191c" stroke="#d7191c" stroke-width="0.75"/>
      <path d="M288.00,160.00 L320.00,128.00 L288.00,128.00 L288.00,160.00 Z" fill="#e8ffc0" stroke="#e8ffc0" stroke-width="0.75"/>
      <path d="M288.00,160.00 L320.00,160.00 L320.00,128.00 L288.00,160.00 Z" fill="#d7191c" stroke="#d7191c" stroke-width="0.75"/>
      <path d="M288.00,192.00 L320.00,160.00 L288.00,160.00 L288.00,192.00 Z" fill="#e8ffc0" stroke="#e8ffc0" stroke-width="0.75"/>
      <path d="M288.00,192.00 L320.00,192.00 L320.00,160.00 L288.00,192.00 Z" fill="#d7191c" stroke="#d7191c" stroke-width="0.75"/>
      <path d="M320.00,192.00 L288.00,192.00 L288.00,194.51 L308.47,199.16 L315.21,196.79 L320.00,192.00 Z" fill="#e8ffc0" stroke="#e8ffc0" stroke-width="0.75"/>
      <path d="M320.00,192.00 L315.21,196.79 L320.00,195.11 L320.00,192.00 Z" fill="#e8ffc0" stroke="#e8ffc0" stroke-width="0.75"/>
      <path d="M320.00,64.00 L336.04,47.96 L320.00,50.17 L320.00,64.00 Z" fill="#fdae61" stroke="#fdae61" stroke-width="0.75"/>
      <path d="M320.00,64.00 L352.00,64.00 L352.00,47.68 L346.15,46.57 L336.04,47.96 L320.00,64.00 Z" fill="#e8ffc0" stroke="#e8ffc0" stroke-width="0.75"/>
      <path d="M320.00,96.00 L352.00,64.00 L320.00,64.00 L320.00,96.00 Z" fill="#e8ffc0" stroke="#e8ffc0" stroke-width="0.75"/>
      <path d="M320.00,96.00 L352.00,96.00 L352.00,64.00 L320.00,96.00 Z" fill="#e8ffc0" stroke="#e8ffc0" stroke-width="0.75"/>
      <path d="M320.00,128.00 L352.00,96.00 L320.00,96.00 L320.00,128.00 Z" fill="#e8ffc0" stroke="#e8ffc0" stroke-width="0.75"/>
      <path d="M320.00,128.00 L352.00,128.00 L352.00,96.00 L320.00,128.00 Z" fill="#e8ffc0" stroke="#e8ffc0" stroke-width="0.75"/>
      <path d="M320.00,160.00 L352.00,128.00 L320.00,128.00 L320.00,160.00 Z" fill="#d7191c" stroke="#d7191c" stroke-width="0.75"/>
      <path d="M320.00,160.00 L352.00,160.00 L352.00,128.00 L320.00,160.00 Z" fill="#d7191c" stroke="#d7191c" stroke-width="0.75"/>
      <path d="M320.00,192.00 L352.00,160.00 L320.00,160.00 L320.00,192.00 Z" fill="#a6d96a" stroke="#a6d96a" stroke-width="0.75"/>
      <path d="M352.00,160.00 L320.00,192.00 L328.84,192.00 L352.00,183.86 L352.00,160.00 Z" fill="#d7191c" stroke="#d7191c" stroke-width="0.75"/>
      <path d="M320.00,192.00 L320.00,195.11 L328.84,192.00 L320.00,192.00 Z" fill="#a6d96a" stroke="#a6d96a" stroke-width="0.75"/>
      <path d="M352.00,64.00 L365.71,50.29 L352.00,47.68 L352.00,64.00 Z" fill="#a6d96a" stroke="#a6d96a" stroke-width="0.75"/>
      <path d="M352.00,64.00 L383.06,64.00 L382.86,62.60 L376.31,63.70 L376.26,52.29 L365.71,50.29 L352.00,64.00 Z" fill="#a6d96a" stroke="#a6d96a" stroke-width="0.75"/>
      <path d="M352.00,64.00 L352.00,96.00 L383.17,64.83 L383.06,64.00 L352.00,64.00 Z" fill="#a6d96a" stroke="#a6d96a" stroke-width="0.75"/>
      <path d="M384.00,70.78 L383.17,64.83 L352.00,96.00 L384.00,96.00 L384.00,86.31 L378.24,81.19 L384.00,71.99 L384.00,70.78 Z" fill="#fdae61" stroke="#fdae61" stroke-width="0.75"/>
      <path d="M352.00,128.00 L384.00,96.00 L352.00,96.00 L352.00,128.00 Z" fill="#e8ffc0" stroke="#e8ffc0" stroke-width="0.75"/>
      <path d="M352.00,128.00 L384.00,128.00 L384.00,96.00 L352.00,128.00 Z" fill="#d7191c" stroke="#d7191c" stroke-width="0.75"/>
      <path d="M352.00,160.00 L384.00,128.00 L352.00,128.00 L352.00,160.00 Z" fill="#fdae61" stroke="#fdae61" stroke-width="0.75"/>
      <path d="M384.00,128.00 L352.00,160.00 L369.61,160.00 L384.00,153.65 L384.00,128.00 Z" fill="#d7191c" stroke="#d7191c" stroke-width="0.75"/>
      <path d="M352.00,160.00 L352.00,183.86 L362.27,180.24 L364.64,162.19 L369.61,160.00 L352.00,160.00 Z" fill="#d7191c" stroke="#d7191c" stroke-width="0.75"/>
      <path d="M384.00,96.00 L389.13,90.87 L384.00,86.31 L384.00,96.00 Z" fill="#fdae61" stroke="#fdae61" stroke-width="0.75"/>
      <path d="M384.00,96.00 L394.90,96.00 L389.13,90.87 L384.00,96.00 Z" fill="#e8ffc0" stroke="#e8ffc0" stroke-width="0.75"/>
      <path d="M384.00,96.00 L384.00,128.00 L389.59,122.41 L387.85,121.32 L390.37,103.53 L400.00,100.54 L394.90,96.00 L384.00,96.00 Z" fill="#a6d96a" stroke="#a6d96a" stroke-width="0.75"/>
      <path d="M384.00,128.00 L398.47,128.00 L389.59,122.41 L384.00,128.00 Z" fill="#e8ffc0" stroke="#e8ffc0" stroke-width="0.75"/>
      <path d="M384.00,128.00 L384.00,153.65 L388.52,151.65 L385.78,132.52 L398.81,128.21 L398.47,128.00 L384.00,128.00 Z" fill="#e8ffc0" stroke="#e8ffc0" stroke-width="0.75"/>
</svg>
